<svg width="65" height="65" viewBox="0 0 65 65" fill="none" xmlns="http://www.w3.org/2000/svg">
<path d="M64.6073 30.6465C58.4876 17.2136 46.3723 8.125 32.5 8.125C18.6277 8.125 6.50903 17.2199 0.392708 30.6478C0.13456 31.2222 6.10352e-05 31.8569 6.10352e-05 32.5006C6.10352e-05 33.1443 0.13456 33.779 0.392708 34.3535C6.51241 47.7864 18.6277 56.875 32.5 56.875C46.3723 56.875 58.491 47.7801 64.6073 34.3522C64.8654 33.7778 64.9999 33.1431 64.9999 32.4994C64.9999 31.8557 64.8654 31.221 64.6073 30.6465ZM32.5 50.7812C29.2861 50.7812 26.1443 49.7091 23.472 47.7003C20.7997 45.6915 18.7169 42.8364 17.487 39.4959C16.257 36.1555 15.9352 32.4797 16.5622 28.9335C17.1892 25.3873 18.7369 22.1299 21.0095 19.5732C23.2821 17.0165 26.1776 15.2754 29.3298 14.57C32.482 13.8646 35.7493 14.2267 38.7186 15.6103C41.6879 16.994 44.2258 19.3371 46.0114 22.3435C47.797 25.3498 48.75 28.8843 48.75 32.5C48.751 34.9011 48.3314 37.2788 47.5152 39.4973C46.6989 41.7158 45.502 43.7316 43.9928 45.4294C42.4836 47.1272 40.6918 48.4737 38.7198 49.3921C36.7478 50.3104 34.6343 50.7824 32.5 50.7812ZM32.5 20.3125C31.533 20.3277 30.5723 20.4895 29.6438 20.7937C30.4092 21.9637 30.7765 23.4037 30.6791 24.8523C30.5816 26.3009 30.026 27.6623 29.1129 28.6895C28.1998 29.7167 26.9897 30.3418 25.702 30.4514C24.4144 30.561 23.1344 30.1478 22.0944 29.2868C21.5021 31.7416 21.609 34.3435 22.4 36.7263C23.1911 39.1091 24.6264 41.1528 26.504 42.5699C28.3816 43.9869 30.6069 44.7059 32.8667 44.6255C35.1265 44.5452 37.3071 43.6697 39.1014 42.1222C40.8958 40.5746 42.2136 38.433 42.8693 35.9988C43.5251 33.5646 43.4858 30.9603 42.757 28.5525C42.0282 26.1447 40.6466 24.0546 38.8066 22.5765C36.9666 21.0983 34.7609 20.3065 32.5 20.3125Z" fill="black"/>
</svg>
